<mxfile host="app.diagrams.net" modified="2023-11-13T23:12:50.273Z" agent="Mozilla/5.0 (Windows NT 10.0; Win64; x64) AppleWebKit/537.36 (KHTML, like Gecko) Chrome/119.0.0.0 Safari/537.36" version="22.1.0" etag="Gb0byZj5rljJF3wSzAvj" type="github">
  <diagram name="페이지-1" id="nfGxgNrpM7kqreSRUc8z">
    <mxGraphModel>
      <root>
        <mxCell id="0" />
        <mxCell id="1" parent="0" />
      </root>
    </mxGraphModel>
  </diagram>
</mxfile>
